<svg xmlns="http://www.w3.org/2000/svg" width="32" height="32" viewBox="0 0 32 32">
  <rect width="32" height="32" rx="7" fill="#9046FF"/>
  <g transform="translate(4.5,4) scale(0.019)">
    <path d="M398.554 818.914C316.315 1001.03 491.477 1046.74 620.672 940.156C658.687 1059.66 801.052 970.473 852.234 877.795C964.787 673.567 919.318 465.357 907.64 422.374C827.637 129.443 427.623 128.946 358.8 423.865C342.651 475.544 342.402 534.18 333.458 595.051C328.986 625.86 325.507 645.488 313.83 677.785C306.873 696.424 297.68 712.819 282.773 740.645C259.915 783.881 269.604 867.113 387.87 823.883L399.051 818.914H398.554Z" fill="white"/>
    <ellipse cx="636" cy="487" rx="38" ry="58" fill="#9046FF"/>
    <ellipse cx="771" cy="487" rx="38" ry="58" fill="#9046FF"/>
  </g>
</svg>
